<svg xmlns="http://www.w3.org/2000/svg" viewBox="0 0 64 64" width="64" height="64">
<path d="M0 0 C1.11826172 0.00322266 2.23652344 0.00644531 3.38867188 0.00976562 C4.55591797 0.01814453 5.72316406 0.02652344 6.92578125 0.03515625 C8.10462891 0.03966797 9.28347656 0.04417969 10.49804688 0.04882812 C13.41150914 0.06062352 16.32486988 0.07708355 19.23828125 0.09765625 C19.89828125 1.41765625 20.55828125 2.73765625 21.23828125 4.09765625 C20.57828125 5.08765625 19.91828125 6.07765625 19.23828125 7.09765625 C16.71630859 7.43823242 16.71630859 7.43823242 13.57421875 7.390625 C12.56407715 7.38313232 11.55393555 7.37563965 10.51318359 7.36791992 C9.22621582 7.34060791 7.93924805 7.3132959 6.61328125 7.28515625 C2.52953125 7.22328125 -1.55421875 7.16140625 -5.76171875 7.09765625 C-5.76171875 20.62765625 -5.76171875 34.15765625 -5.76171875 48.09765625 C7.76828125 48.09765625 21.29828125 48.09765625 35.23828125 48.09765625 C35.11973183 40.33403423 35.11973183 40.33403423 34.96801758 32.57104492 C34.9605249 31.60400635 34.95303223 30.63696777 34.9453125 29.640625 C34.92960205 28.6508667 34.9138916 27.6611084 34.89770508 26.64135742 C35.28781002 23.72773495 35.95836413 22.87267823 38.23828125 21.09765625 C39.55828125 21.75765625 40.87828125 22.41765625 42.23828125 23.09765625 C42.35462058 27.32659093 42.42558077 31.55511299 42.48828125 35.78515625 C42.53855469 37.58243164 42.53855469 37.58243164 42.58984375 39.41601562 C42.60273437 40.57294922 42.615625 41.72988281 42.62890625 42.921875 C42.64985352 43.98494873 42.67080078 45.04802246 42.69238281 46.14331055 C42.08668997 50.08389607 41.33970543 51.54877801 38.23828125 54.09765625 C34.80064189 54.82978838 31.42929782 54.77430179 27.92578125 54.7265625 C26.41697388 54.73018044 26.41697388 54.73018044 24.87768555 54.73387146 C22.75272679 54.73289272 20.62774263 54.71949279 18.50292969 54.69458008 C15.2497702 54.66027739 11.99932742 54.67391872 8.74609375 54.69335938 C6.68097802 54.68646084 4.6158693 54.67678839 2.55078125 54.6640625 C1.57778076 54.66902237 0.60478027 54.67398224 -0.39770508 54.67909241 C-4.22696801 54.61228762 -6.97272175 54.52167304 -10.37524414 52.69311523 C-12.57503646 48.57513809 -12.31211348 44.60130827 -12.2578125 40.00390625 C-12.25926773 39.02023071 -12.26072296 38.03655518 -12.26222229 37.02307129 C-12.26056374 34.94520096 -12.24900737 32.8673183 -12.22827148 30.78955078 C-12.19932355 27.60916966 -12.20766242 24.43045611 -12.22070312 21.25 C-12.21446541 19.23046065 -12.20607421 17.21092656 -12.1953125 15.19140625 C-12.19824814 14.24027954 -12.20118378 13.28915283 -12.20420837 12.3092041 C-12.1915242 11.42148315 -12.17884003 10.53376221 -12.16577148 9.61914062 C-12.1603685 8.84066772 -12.15496552 8.06219482 -12.1493988 7.26013184 C-11.65561813 4.50582801 -10.66022148 3.13054266 -8.76171875 1.09765625 C-5.58384334 0.03836445 -3.33582932 -0.01693314 0 0 Z " fill="#5F7D8B" transform="translate(11.76171875,9.90234375)"/>
<path d="M0 0 C3.18086518 1.50946511 5.29869906 3.07941825 7.75 5.625 C8.67039062 6.57246094 8.67039062 6.57246094 9.609375 7.5390625 C10.29773437 8.26222656 10.29773437 8.26222656 11 9 C8.59523682 14.54812095 4.06412729 18.38524881 -0.125 22.625 C-0.95515625 23.49640625 -1.7853125 24.3678125 -2.640625 25.265625 C-7.55981439 30.24649701 -10.9212929 33.32655006 -18 34 C-19.67421842 33.70694442 -21.34358949 33.38104214 -23 33 C-22.73322255 23.701482 -19.99207397 18.8860205 -13.359375 12.48046875 C-12.36512148 11.56972466 -11.37032304 10.65957512 -10.375 9.75 C-9.37010113 8.79537851 -8.3674748 7.83835883 -7.3671875 6.87890625 C-4.93268233 4.56144459 -2.47807311 2.27066292 0 0 Z " fill="#42A5F5" transform="translate(45,8)"/>
<path d="M0 0 C1.9375 1 1.9375 1 3 3 C3.73574144 8.06844106 3.73574144 8.06844106 3 11 C1.18277145 13.20174358 -0.58687091 14.39124727 -3 16 C-6.3 12.7 -9.6 9.4 -13 6 C-8.2454497 0.05681213 -7.32417654 -0.5139773 0 0 Z " fill="#42A5F5" transform="translate(61,0)"/>
</svg>