<svg xmlns="http://www.w3.org/2000/svg" viewBox="0 0 64 64" width="64" height="64">
<path d="M0 0 C0.91974609 -0.01224609 1.83949219 -0.02449219 2.78710938 -0.03710938 C3.67076172 -0.03904297 4.55441406 -0.04097656 5.46484375 -0.04296875 C6.27429443 -0.04707764 7.08374512 -0.05118652 7.91772461 -0.05541992 C10.0625 0.1875 10.0625 0.1875 13.0625 2.1875 C13.75 4.8125 13.75 4.8125 14.0625 7.1875 C15.42375 7.06375 15.42375 7.06375 16.8125 6.9375 C20.0625 7.1875 20.0625 7.1875 22.5 8.875 C24.0625 11.1875 24.0625 11.1875 23.9375 13.5625 C23.0625 16.1875 23.0625 16.1875 22.04296875 18.640625 C20.67104278 23.60360819 20.63408506 28.43456418 20.5 33.5625 C20.38290046 37.43924233 20.24089926 41.31308782 20.0625 45.1875 C20.02600342 46.35974121 20.02600342 46.35974121 19.98876953 47.55566406 C19.75385703 51.06553322 19.41343427 52.82998048 16.91577148 55.37451172 C13.52950324 57.5261698 11.60953176 57.70262762 7.625 57.71875 C5.78808594 57.72648437 5.78808594 57.72648437 3.9140625 57.734375 C2.64304687 57.71890625 1.37203125 57.7034375 0.0625 57.6875 C-1.84402344 57.71070312 -1.84402344 57.71070312 -3.7890625 57.734375 C-5.01367188 57.72921875 -6.23828125 57.7240625 -7.5 57.71875 C-8.61503906 57.71423828 -9.73007812 57.70972656 -10.87890625 57.70507812 C-14.62316268 57.07147151 -16.29526355 55.87931783 -18.9375 53.1875 C-19.5718301 50.34090421 -19.84799189 48.06242942 -19.9375 45.1875 C-19.97858887 44.29514648 -20.01967773 43.40279297 -20.06201172 42.48339844 C-20.22958856 38.48982026 -20.35059881 34.49569673 -20.45507812 30.5 C-20.63368241 25.36428436 -20.93861234 20.9970841 -22.9375 16.1875 C-23.8125 13.5625 -23.8125 13.5625 -23.9375 11.1875 C-22.375 8.875 -22.375 8.875 -19.9375 7.1875 C-16.6875 6.9375 -16.6875 6.9375 -13.9375 7.1875 C-13.64875 6.218125 -13.36 5.24875 -13.0625 4.25 C-10.91276671 -1.60205174 -5.44118975 0.00379706 0 0 Z M-9.9375 4.1875 C-9.6075 5.5075 -9.2775 6.8275 -8.9375 8.1875 C-2.6675 8.1875 3.6025 8.1875 10.0625 8.1875 C10.0625 6.8675 10.0625 5.5475 10.0625 4.1875 C3.4625 4.1875 -3.1375 4.1875 -9.9375 4.1875 Z M-19.9375 16.1875 C-19.9375 16.5175 -19.9375 16.8475 -19.9375 17.1875 C-6.7375 17.1875 6.4625 17.1875 20.0625 17.1875 C20.0625 16.8575 20.0625 16.5275 20.0625 16.1875 C6.8625 16.1875 -6.3375 16.1875 -19.9375 16.1875 Z M-9.9375 29.1875 C-9.9375 34.7975 -9.9375 40.4075 -9.9375 46.1875 C-9.6075 46.1875 -9.2775 46.1875 -8.9375 46.1875 C-8.9375 40.5775 -8.9375 34.9675 -8.9375 29.1875 C-9.2675 29.1875 -9.5975 29.1875 -9.9375 29.1875 Z M9.0625 29.1875 C9.0625 34.7975 9.0625 40.4075 9.0625 46.1875 C9.3925 46.1875 9.7225 46.1875 10.0625 46.1875 C10.0625 40.5775 10.0625 34.9675 10.0625 29.1875 C9.7325 29.1875 9.4025 29.1875 9.0625 29.1875 Z " fill="#2A8BFF" transform="translate(31.9375,3.8125)"/>
</svg>